<mxfile host="app.diagrams.net" agent="Mozilla/5.0 (Macintosh; Intel Mac OS X 10_15_7) AppleWebKit/537.36 (KHTML, like Gecko) Chrome/130.0.0.0 Safari/537.36" version="24.8.3">
  <diagram name="第 1 页" id="C_EsO15Jfz7nh-qYxvME">
    <mxGraphModel dx="1420" dy="674" grid="1" gridSize="10" guides="1" tooltips="1" connect="1" arrows="1" fold="1" page="1" pageScale="1" pageWidth="827" pageHeight="1169" math="0" shadow="0">
      <root>
        <mxCell id="0" />
        <mxCell id="1" parent="0" />
        <mxCell id="xl81h3UWxAv-WB6RBHiP-1" value="" style="rounded=0;whiteSpace=wrap;html=1;fillColor=#d5e8d4;strokeColor=#82b366;" vertex="1" parent="1">
          <mxGeometry x="50" y="90" width="630" height="710" as="geometry" />
        </mxCell>
        <mxCell id="xl81h3UWxAv-WB6RBHiP-40" value="" style="group;fillColor=#dae8fc;strokeColor=#6c8ebf;" vertex="1" connectable="0" parent="1">
          <mxGeometry x="61.45454545454545" y="630" width="601.3636363636364" height="135" as="geometry" />
        </mxCell>
        <mxCell id="xl81h3UWxAv-WB6RBHiP-41" value="" style="rounded=0;whiteSpace=wrap;html=1;fillColor=#f8cecc;strokeColor=#b85450;fontSize=18;" vertex="1" parent="xl81h3UWxAv-WB6RBHiP-40">
          <mxGeometry width="601.3636363636364" height="135" as="geometry" />
        </mxCell>
        <mxCell id="xl81h3UWxAv-WB6RBHiP-43" value="iOS" style="rounded=0;whiteSpace=wrap;html=1;fillColor=#dae8fc;strokeColor=#6c8ebf;" vertex="1" parent="xl81h3UWxAv-WB6RBHiP-40">
          <mxGeometry x="17.18181818181818" y="38.81" width="229.09090909090907" height="67.5" as="geometry" />
        </mxCell>
        <mxCell id="xl81h3UWxAv-WB6RBHiP-44" value="Android" style="rounded=0;whiteSpace=wrap;html=1;fillColor=#dae8fc;strokeColor=#6c8ebf;" vertex="1" parent="xl81h3UWxAv-WB6RBHiP-40">
          <mxGeometry x="274.9090909090909" y="38.81" width="257.72727272727275" height="67.5" as="geometry" />
        </mxCell>
        <mxCell id="xl81h3UWxAv-WB6RBHiP-54" value="App 渲染流程" style="text;html=1;align=center;verticalAlign=middle;whiteSpace=wrap;rounded=0;fontSize=22;" vertex="1" parent="1">
          <mxGeometry x="286.02" y="100" width="152.23" height="40" as="geometry" />
        </mxCell>
        <mxCell id="xl81h3UWxAv-WB6RBHiP-3" value="" style="rounded=0;whiteSpace=wrap;html=1;fillColor=#fff2cc;strokeColor=#d6b656;" vertex="1" parent="1">
          <mxGeometry x="61.45454545454545" y="160" width="601.3636363636364" height="130.98360655737704" as="geometry" />
        </mxCell>
        <mxCell id="xl81h3UWxAv-WB6RBHiP-4" value="" style="group" vertex="1" connectable="0" parent="1">
          <mxGeometry x="84.36363636363637" y="198.52459016393442" width="177.54545454545456" height="77.04918032786885" as="geometry" />
        </mxCell>
        <mxCell id="xl81h3UWxAv-WB6RBHiP-5" value="原生" style="rounded=0;whiteSpace=wrap;html=1;fillColor=#dae8fc;strokeColor=#6c8ebf;container=0;" vertex="1" parent="xl81h3UWxAv-WB6RBHiP-4">
          <mxGeometry width="177.54545454545456" height="77.04918032786885" as="geometry" />
        </mxCell>
        <mxCell id="xl81h3UWxAv-WB6RBHiP-10" value="" style="group" vertex="1" connectable="0" parent="1">
          <mxGeometry x="273.3636363636364" y="198.52459016393442" width="177.54545454545456" height="77.04918032786885" as="geometry" />
        </mxCell>
        <mxCell id="xl81h3UWxAv-WB6RBHiP-11" value="Hybrid WebView" style="rounded=0;whiteSpace=wrap;html=1;fillColor=#dae8fc;strokeColor=#6c8ebf;container=0;" vertex="1" parent="xl81h3UWxAv-WB6RBHiP-10">
          <mxGeometry width="177.54545454545456" height="77.04918032786885" as="geometry" />
        </mxCell>
        <mxCell id="xl81h3UWxAv-WB6RBHiP-16" value="" style="group" vertex="1" connectable="0" parent="1">
          <mxGeometry x="462.3636363636364" y="198.52459016393442" width="177.54545454545456" height="77.04918032786885" as="geometry" />
        </mxCell>
        <mxCell id="xl81h3UWxAv-WB6RBHiP-17" value="" style="rounded=0;whiteSpace=wrap;html=1;fillColor=#dae8fc;strokeColor=#6c8ebf;container=0;" vertex="1" parent="xl81h3UWxAv-WB6RBHiP-16">
          <mxGeometry width="177.54545454545456" height="77.04918032786885" as="geometry" />
        </mxCell>
        <mxCell id="xl81h3UWxAv-WB6RBHiP-18" value="Flutter" style="text;html=1;align=center;verticalAlign=middle;whiteSpace=wrap;rounded=0;" vertex="1" parent="xl81h3UWxAv-WB6RBHiP-16">
          <mxGeometry x="71.5909090909091" y="26.9672131147541" width="34.36363636363637" height="23.114754098360656" as="geometry" />
        </mxCell>
        <mxCell id="xl81h3UWxAv-WB6RBHiP-23" value="" style="rounded=0;whiteSpace=wrap;html=1;fillColor=#ffe6cc;strokeColor=#d79b00;" vertex="1" parent="1">
          <mxGeometry x="61.45454545454545" y="350" width="395.1818181818182" height="120" as="geometry" />
        </mxCell>
        <mxCell id="xl81h3UWxAv-WB6RBHiP-24" value="Skia" style="rounded=0;whiteSpace=wrap;html=1;fillColor=#dae8fc;strokeColor=#6c8ebf;" vertex="1" parent="1">
          <mxGeometry x="284.8181818181818" y="530" width="378.00000000000006" height="50" as="geometry" />
        </mxCell>
        <mxCell id="xl81h3UWxAv-WB6RBHiP-31" value="WebView" style="rounded=0;whiteSpace=wrap;html=1;fillColor=#dae8fc;strokeColor=#6c8ebf;" vertex="1" parent="1">
          <mxGeometry x="273.3636363636364" y="379.99803278688523" width="177.54545454545456" height="77.04918032786885" as="geometry" />
        </mxCell>
        <mxCell id="xl81h3UWxAv-WB6RBHiP-36" value="" style="shape=flexArrow;endArrow=classic;html=1;rounded=0;fillColor=#dae8fc;strokeColor=#6c8ebf;" edge="1" parent="1">
          <mxGeometry width="50" height="50" relative="1" as="geometry">
            <mxPoint x="474.9636363636364" y="660" as="sourcePoint" />
            <mxPoint x="474.9636363636364" y="580" as="targetPoint" />
          </mxGeometry>
        </mxCell>
        <mxCell id="xl81h3UWxAv-WB6RBHiP-55" value="UI" style="text;html=1;align=center;verticalAlign=middle;whiteSpace=wrap;rounded=0;fontSize=16;" vertex="1" parent="1">
          <mxGeometry x="70.0018181818182" y="360" width="51.54545454545455" height="35" as="geometry" />
        </mxCell>
        <mxCell id="xl81h3UWxAv-WB6RBHiP-57" value="Core Graphic" style="rounded=0;whiteSpace=wrap;html=1;fillColor=#dae8fc;strokeColor=#6c8ebf;" vertex="1" parent="1">
          <mxGeometry x="61.45454545454545" y="530" width="211.9090909090909" height="50" as="geometry" />
        </mxCell>
        <mxCell id="xl81h3UWxAv-WB6RBHiP-58" value="" style="shape=flexArrow;endArrow=classic;html=1;rounded=0;fillColor=#dae8fc;strokeColor=#6c8ebf;" edge="1" parent="1">
          <mxGeometry width="50" height="50" relative="1" as="geometry">
            <mxPoint x="176" y="660" as="sourcePoint" />
            <mxPoint x="176.2462727272727" y="580" as="targetPoint" />
          </mxGeometry>
        </mxCell>
        <mxCell id="xl81h3UWxAv-WB6RBHiP-59" value="" style="shape=flexArrow;endArrow=classic;html=1;rounded=0;fillColor=#dae8fc;strokeColor=#6c8ebf;" edge="1" parent="1">
          <mxGeometry width="50" height="50" relative="1" as="geometry">
            <mxPoint x="370.72727272727275" y="520" as="sourcePoint" />
            <mxPoint x="370.72727272727275" y="470" as="targetPoint" />
          </mxGeometry>
        </mxCell>
        <mxCell id="xl81h3UWxAv-WB6RBHiP-60" value="" style="shape=flexArrow;endArrow=classic;html=1;rounded=0;fillColor=#dae8fc;strokeColor=#6c8ebf;" edge="1" parent="1">
          <mxGeometry width="50" height="50" relative="1" as="geometry">
            <mxPoint x="172.85000000000002" y="525" as="sourcePoint" />
            <mxPoint x="172.85000000000002" y="475" as="targetPoint" />
          </mxGeometry>
        </mxCell>
        <mxCell id="xl81h3UWxAv-WB6RBHiP-61" value="" style="shape=flexArrow;endArrow=classic;html=1;rounded=0;fillColor=#dae8fc;strokeColor=#6c8ebf;" edge="1" parent="1">
          <mxGeometry width="50" height="50" relative="1" as="geometry">
            <mxPoint x="172.85000000000002" y="340.98" as="sourcePoint" />
            <mxPoint x="172.85000000000002" y="290.98" as="targetPoint" />
          </mxGeometry>
        </mxCell>
        <mxCell id="xl81h3UWxAv-WB6RBHiP-62" value="" style="shape=flexArrow;endArrow=classic;html=1;rounded=0;fillColor=#dae8fc;strokeColor=#6c8ebf;" edge="1" parent="1">
          <mxGeometry width="50" height="50" relative="1" as="geometry">
            <mxPoint x="366.1454545454545" y="370" as="sourcePoint" />
            <mxPoint x="366.1454545454545" y="280" as="targetPoint" />
          </mxGeometry>
        </mxCell>
        <mxCell id="xl81h3UWxAv-WB6RBHiP-66" value="Weight" style="rounded=0;whiteSpace=wrap;html=1;fillColor=#ffe6cc;strokeColor=#d79b00;" vertex="1" parent="1">
          <mxGeometry x="470" y="350" width="190" height="120" as="geometry" />
        </mxCell>
        <mxCell id="xl81h3UWxAv-WB6RBHiP-68" value="" style="shape=flexArrow;endArrow=classic;html=1;rounded=0;fillColor=#dae8fc;strokeColor=#6c8ebf;" edge="1" parent="1">
          <mxGeometry width="50" height="50" relative="1" as="geometry">
            <mxPoint x="564.4972727272727" y="520" as="sourcePoint" />
            <mxPoint x="564.4972727272727" y="470" as="targetPoint" />
          </mxGeometry>
        </mxCell>
        <mxCell id="xl81h3UWxAv-WB6RBHiP-69" value="" style="shape=flexArrow;endArrow=classic;html=1;rounded=0;fillColor=#dae8fc;strokeColor=#6c8ebf;" edge="1" parent="1">
          <mxGeometry width="50" height="50" relative="1" as="geometry">
            <mxPoint x="564.4972727272727" y="340.98" as="sourcePoint" />
            <mxPoint x="564.4972727272727" y="290.98" as="targetPoint" />
          </mxGeometry>
        </mxCell>
      </root>
    </mxGraphModel>
  </diagram>
</mxfile>
